<?xml version="1.0" standalone="no"?>
<!DOCTYPE svg PUBLIC "-//W3C//DTD SVG 20010904//EN"
 "http://www.w3.org/TR/2001/REC-SVG-20010904/DTD/svg10.dtd">
<svg version="1.0" xmlns="http://www.w3.org/2000/svg"
 width="260.000000pt" height="260.000000pt" viewBox="0 0 260.000000 260.000000"
 preserveAspectRatio="xMidYMid meet">
<metadata>
Created by potrace 1.14, written by Peter Selinger 2001-2017
</metadata>
<g transform="translate(0.000000,260.000000) scale(0.100000,-0.100000)"
fill="#000000" stroke="none">
<path d="M0 1300 l0 -1300 1300 0 1300 0 0 1300 0 1300 -1300 0 -1300 0 0
-1300z m1754 734 c22 -8 21 -62 -1 -87 -17 -18 -18 -54 -19 -448 l0 -429 -25
-26 c-36 -38 -72 -54 -126 -54 -54 0 -104 25 -124 62 -7 13 -13 61 -13 112 -1
85 -2 90 -29 110 -24 18 -42 21 -116 21 -149 0 -165 -23 -155 -219 8 -164 -2
-207 -59 -256 -22 -19 -68 -61 -103 -92 -85 -78 -143 -89 -179 -34 -15 22 -15
41 -6 173 7 81 10 301 9 488 -3 371 -3 376 55 419 22 16 43 20 105 21 89 0
137 -16 157 -55 7 -14 19 -72 25 -129 6 -56 14 -109 17 -117 11 -28 60 -44
137 -44 130 0 145 29 146 281 0 108 4 160 13 172 6 9 56 34 110 56 53 22 109
49 123 60 29 23 34 24 58 15z"/>
</g>
</svg>
